<svg aria-hidden="true" style="position: absolute; width: 0; height: 0; overflow: hidden;" version="1.1" xmlns="http://www.w3.org/2000/svg" xmlns:xlink="http://www.w3.org/1999/xlink">
<defs>
<symbol id="icon-radar-advantage" viewBox="0 0 32 32">
<path d="M19.192 4.086c-3.247-0.87-6.537-0.361-9.252 1.171-0.481 0.271-1.091 0.101-1.362-0.38s-0.101-1.091 0.38-1.362c3.152-1.778 6.979-2.372 10.752-1.361 7.646 2.049 12.184 9.908 10.135 17.555s-9.908 12.184-17.555 10.135-12.184-9.908-10.135-17.555c0.406-1.514 1.040-2.908 1.857-4.153 0.765-1.167 2.309-1.258 3.287-0.466l9.331 7.552c0.429 0.347 0.496 0.977 0.148 1.406s-0.977 0.496-1.406 0.148l-5.386-4.36c-0.626 1.048-0.985 2.272-0.985 3.582 0 3.866 3.134 7 7 7s7-3.134 7-7-3.134-7-7-7c-0.775 0-1.519 0.126-2.214 0.357-0.524 0.175-1.090-0.109-1.265-0.633s0.109-1.090 0.633-1.265c0.896-0.298 1.853-0.459 2.846-0.459 4.971 0 9 4.029 9 9s-4.029 9-9 9-9-4.029-9-9c0-1.785 0.521-3.451 1.418-4.85l-2.378-1.924c-0.074-0.060-0.158-0.078-0.225-0.070-0.061 0.007-0.102 0.034-0.131 0.079-0.701 1.070-1.247 2.268-1.597 3.574-1.763 6.579 2.142 13.342 8.721 15.105s13.342-2.142 15.105-8.721c1.763-6.579-2.141-13.342-8.721-15.105z"></path>
</symbol>
<symbol id="icon-eye-advantage" viewBox="0 0 32 32">
<path d="M30.564 15.506c-9.59-10.957-19.543-10.957-29.129 0-0.115 0.131-0.185 0.305-0.185 0.494s0.070 0.363 0.186 0.495l-0.001-0.001c4.793 5.479 9.693 8.256 14.563 8.256h0.001c4.869 0 9.771-2.777 14.564-8.256 0.116-0.131 0.186-0.304 0.186-0.494s-0.070-0.363-0.187-0.495l0.001 0.001zM3.004 16c8.704-9.626 17.291-9.622 25.992 0-8.703 9.621-17.291 9.621-25.992 0zM16 11.25c-2.623 0-4.75 2.127-4.75 4.75s2.127 4.75 4.75 4.75c2.623 0 4.75-2.127 4.75-4.75v0c-0.003-2.622-2.128-4.747-4.75-4.75v0zM16 19.25c-1.795 0-3.25-1.455-3.25-3.25s1.455-3.25 3.25-3.25c1.795 0 3.25 1.455 3.25 3.25v0c-0.002 1.794-1.456 3.248-3.25 3.25v0z"></path>
</symbol>
<symbol id="icon-gear-advantages" viewBox="0 0 32 32">
<path d="M28.813 21.625c-0.163-0.75-0.7-1.375-1.425-1.625l-6.075-2.163-5.313 5.313-5.3-5.3-6.075 2.15c-0.725 0.262-1.263 0.887-1.425 1.625l-2.112 9.925h29.837l-2.113-9.925zM4.425 21.887c0.075-0.325 0.3-0.587 0.612-0.7l5.325-1.887 5.637 5.637 5.637-5.637 5.325 1.887c0.313 0.113 0.55 0.375 0.613 0.7l1.788 8.4h-26.725l1.787-8.4z"></path>
<path d="M8.15 10.262l0.563 0.050h0.037c0.125 0 0.238 0 0.363 0s0.262 0 0.387 0c0.15 0.525 0.35 1.012 0.625 1.488-0.088 0.088-0.162 0.162-0.25 0.25l-0.25 0.25c-0.037 0.037-0.075 0.075-0.1 0.1l-0.35 0.375 0.3 0.412c0.512 0.7 1.125 1.325 1.838 1.825l0.412 0.3 0.375-0.35 0.050-0.050c0.137-0.15 0.287-0.287 0.425-0.438 0.037-0.037 0.075-0.075 0.113-0.113 0.463 0.262 0.963 0.463 1.475 0.613 0 0.088 0 0.188 0 0.275 0 0.162 0 0.325 0 0.5l0.037 0.563 0.5 0.075c0.412 0.063 0.85 0.1 1.275 0.1s0.862-0.038 1.275-0.1l0.5-0.075 0.038-0.55v-0.025c0-0.162 0-0.325 0-0.5 0-0.088 0-0.188 0-0.275 0.512-0.137 1.012-0.35 1.475-0.613 0.038 0.037 0.075 0.075 0.113 0.113 0.15 0.137 0.288 0.287 0.425 0.425l0.425 0.4 0.413-0.3c0.712-0.512 1.325-1.125 1.837-1.825l0.3-0.412-0.35-0.375c-0.025-0.025-0.063-0.063-0.1-0.1l-0.238-0.25c-0.087-0.088-0.163-0.162-0.25-0.25 0.262-0.475 0.475-0.963 0.625-1.488 0.050 0 0.1 0 0.137 0 0.212 0 0.413 0 0.625 0l0.587-0.050 0.075-0.475c0.075-0.425 0.1-0.863 0.1-1.3s-0.038-0.875-0.113-1.313l-0.075-0.5-0.5-0.025h-0.35c-0.175 0-0.337 0-0.512 0-0.15-0.513-0.35-1-0.613-1.463 0.188-0.188 0.375-0.375 0.575-0.563l0.387-0.375-0.313-0.438c-0.512-0.712-1.137-1.337-1.85-1.85l-0.438-0.313-0.375 0.388c-0.113 0.125-0.238 0.237-0.35 0.35-0.075 0.075-0.15 0.15-0.212 0.212-0.462-0.263-0.962-0.462-1.475-0.6v-0.4c0-0.125 0-0.25 0-0.413v-0.537l-0.525-0.088c-0.837-0.138-1.725-0.138-2.563 0l-0.55 0.1 0.025 0.563c0 0.125 0 0.25 0 0.387v0.4c-0.512 0.138-1 0.35-1.475 0.6-0.075-0.075-0.15-0.15-0.213-0.212-0.113-0.112-0.238-0.237-0.35-0.35l-0.375-0.387-0.438 0.313c-0.713 0.512-1.338 1.137-1.85 1.85l-0.313 0.438 0.387 0.375c0.188 0.188 0.375 0.375 0.575 0.563-0.262 0.463-0.463 0.95-0.613 1.462-0.175 0-0.338 0-0.512 0l-0.85 0.037-0.075 0.5c-0.075 0.438-0.112 0.875-0.112 1.313s0.037 0.875 0.1 1.3l0.1 0.475zM9.25 7.9c0.213 0 0.412 0 0.613 0.013 0.113 0 0.213-0.013 0.3-0.025l0.387-0.1 0.075-0.388c0.137-0.7 0.412-1.35 0.813-1.95l0.225-0.338-0.213-0.35c-0.063-0.1-0.15-0.188-0.213-0.263l-0.125-0.125c-0.088-0.088-0.175-0.175-0.275-0.275 0.25-0.288 0.525-0.563 0.813-0.813 0.15 0.15 0.287 0.288 0.438 0.438 0.063 0.063 0.162 0.15 0.3 0.212l0.313 0.137 0.287-0.188c0.6-0.4 1.25-0.663 1.95-0.8l0.375-0.075 0.1-0.375c0.025-0.087 0.037-0.175 0.025-0.275 0-0.138 0-0.275 0-0.413v-0.225c0.363-0.025 0.737-0.025 1.1 0v0.225c0 0.138 0 0.275 0 0.413 0 0.1 0.012 0.188 0.025 0.275l0.1 0.375 0.375 0.075c0.7 0.138 1.363 0.413 1.95 0.8l0.288 0.188 0.313-0.138c0.137-0.063 0.238-0.15 0.3-0.225 0.137-0.15 0.288-0.288 0.438-0.438 0.3 0.25 0.563 0.512 0.813 0.812-0.087 0.088-0.175 0.175-0.275 0.275l-0.125 0.125c-0.075 0.075-0.15 0.15-0.212 0.263l-0.212 0.35 0.225 0.338c0.4 0.6 0.675 1.25 0.813 1.95l0.075 0.388 0.387 0.1c0.087 0.025 0.2 0.037 0.3 0.025 0.2-0.013 0.4-0.013 0.613-0.013 0.012 0.188 0.025 0.387 0.025 0.575s-0.012 0.387-0.025 0.575c-0.038 0-0.075 0-0.113 0-0.2 0-0.387 0-0.6 0l-0.563 0.037-0.087 0.463c-0.137 0.713-0.425 1.375-0.825 1.975l-0.25 0.363 0.25 0.35c0.038 0.050 0.075 0.1 0.137 0.15 0.163 0.15 0.313 0.3 0.462 0.463-0.25 0.287-0.512 0.55-0.8 0.8-0.025-0.025-0.050-0.050-0.075-0.075-0.137-0.137-0.262-0.262-0.4-0.4-0.050-0.050-0.113-0.1-0.163-0.137l-0.35-0.238-0.35 0.238c-0.6 0.4-1.262 0.675-1.962 0.813l-0.4 0.075-0.1 0.387c-0.025 0.088-0.025 0.175-0.025 0.275 0 0.213 0 0.425 0 0.625-0.363 0.025-0.738 0.025-1.1 0 0-0.213 0-0.425 0-0.625 0-0.1 0-0.188-0.025-0.275l-0.1-0.387-0.4-0.075c-0.7-0.137-1.363-0.412-1.963-0.813l-0.35-0.238-0.35 0.238c-0.063 0.037-0.113 0.088-0.162 0.137-0.125 0.137-0.262 0.262-0.4 0.4-0.025 0.025-0.050 0.050-0.075 0.075-0.287-0.238-0.563-0.512-0.8-0.8 0.15-0.15 0.313-0.313 0.463-0.463 0.050-0.050 0.1-0.1 0.137-0.15l0.25-0.35-0.25-0.363c-0.4-0.6-0.688-1.262-0.825-1.975l-0.088-0.463-0.475-0.037h-0.1c-0.113 0-0.225 0-0.338 0-0.125 0-0.25 0-0.375 0-0.012-0.188-0.025-0.387-0.025-0.575 0.063-0.175 0.075-0.363 0.088-0.563z"></path>
<path d="M13.025 10.625c0.238 0.325 0.512 0.6 0.838 0.838 0.463 0.325 0.988 0.55 1.55 0.637 0.188 0.025 0.387 0.050 0.587 0.050s0.387-0.012 0.587-0.050c0.55-0.088 1.087-0.313 1.55-0.637 0.325-0.238 0.613-0.512 0.837-0.838 0.337-0.463 0.563-1 0.65-1.55v0c0.038-0.2 0.050-0.387 0.050-0.588s-0.012-0.4-0.050-0.6c-0.087-0.55-0.313-1.088-0.637-1.537-0.238-0.325-0.512-0.612-0.85-0.838-0.462-0.325-0.988-0.55-1.55-0.638-0.375-0.063-0.787-0.063-1.175 0-0.55 0.088-1.088 0.313-1.55 0.638-0.325 0.237-0.613 0.513-0.85 0.838-0.325 0.45-0.55 0.987-0.637 1.537-0.037 0.2-0.050 0.4-0.050 0.6s0.012 0.4 0.050 0.6c0.1 0.55 0.325 1.088 0.65 1.537zM13.625 8.088c0.063-0.362 0.2-0.713 0.425-1.013 0.15-0.213 0.338-0.4 0.563-0.55 0.3-0.213 0.65-0.362 1.012-0.412 0.125-0.025 0.25-0.025 0.387-0.025s0.262 0.013 0.387 0.025c0.363 0.063 0.712 0.2 1.012 0.412 0.212 0.15 0.4 0.338 0.55 0.55 0.212 0.3 0.363 0.65 0.425 1.013 0.025 0.125 0.038 0.262 0.038 0.387 0 0.137-0.012 0.262-0.025 0.387-0.063 0.363-0.212 0.713-0.425 1.012-0.15 0.213-0.337 0.4-0.55 0.55-0.3 0.213-0.65 0.363-1.012 0.412-0.25 0.037-0.512 0.037-0.762 0-0.363-0.063-0.713-0.2-1.012-0.412-0.213-0.15-0.4-0.338-0.55-0.55-0.213-0.3-0.363-0.65-0.425-1.012-0.025-0.125-0.025-0.262-0.025-0.387-0.037-0.125-0.025-0.262-0.012-0.387z"></path>
</symbol>
</defs>
</svg>
